# xmcd CD database file
#
# Track frame offsets:
#	150
#	11217
#	22910
#	39942
#	65182
#	78897
#	97727
#	124705
#	140120
#	152247
#
# Disc length: 2289 seconds
#
# Revision: 0
# Processed by: cddbd v1.5.1PL0 Copyright (c) Steve Scherf et al.
# Submitted via: CdAid (MTCDDB.DLL V2003.12.21)
#
DISCID=7a08ef0a
DTITLE=Blues In A Cop - Cuffed On Bluues
DYEAR=1998
DGENRE=Blues
TTITLE0=Blue Soul
TTITLE1=Show Me Yours
TTITLE2=The Power Of Blues
TTITLE3=Don't Turn Your Back On Me
TTITLE4=Out Of Hand
TTITLE5=No One Seems To Care
TTITLE6=On The Edge Of Paradise
TTITLE7=Have Mercy
TTITLE8=Down And Out
TTITLE9=Losers Blues
EXTD=ID3G:   0 YEAR: 1998
EXTT0=
EXTT1=
EXTT2=
EXTT3=
EXTT4=
EXTT5=
EXTT6=
EXTT7=
EXTT8=
EXTT9=
PLAYORDER=
